# xmcd
#
# Track frame offsets:
#	150
#	22946
#	41305
#	72209
#	95045
#	116181
#	142876
#	166396
#
# Disc length: 2445 seconds
# Revision: 0
# Processed by: cddbd v1.5.2PL0 Copyright (c) Steve Scherf et al.
# Submitted via: dBpowerAMP V12.0
#
DISCID=64098b08
DTITLE=Jon Latham - Lifers
DYEAR=2017
DGENRE=Americana
TTITLE0=Last In Line
TTITLE1=Learning Now
TTITLE2=Old Mao And The Sea
TTITLE3=Yearbook Signatures
TTITLE4=Kimberly Met Billy
TTITLE5=Tennessee Dime
TTITLE6=Lifers
TTITLE7=Say It's Closing Time
EXTD=
EXTT0=
EXTT1=
EXTT2=
EXTT3=
EXTT4=
EXTT5=
EXTT6=
EXTT7=
PLAYORDER=
